<svg width="1200" height="300" viewBox="0 0 1200 300" xmlns="http://www.w3.org/2000/svg">
  <!-- Background -->
  <rect width="1200" height="300" fill="#1a1a1a"/>

  <!-- Geometric accents - left side -->
  <circle cx="80" cy="150" r="60" fill="#f0db4f" opacity="0.1"/>
  <circle cx="80" cy="150" r="40" fill="#f0db4f" opacity="0.2"/>
  <circle cx="80" cy="150" r="20" fill="#f0db4f"/>

  <!-- Geometric accents - right side -->
  <rect x="1080" y="100" width="80" height="80" fill="#f0db4f" opacity="0.1" transform="rotate(45 1120 140)"/>
  <rect x="1095" y="115" width="50" height="50" fill="#f0db4f" opacity="0.2" transform="rotate(45 1120 140)"/>
  <rect x="1110" y="130" width="20" height="20" fill="#f0db4f" transform="rotate(45 1120 140)"/>

  <!-- ES2023 Badge -->
  <g transform="translate(150, 80)">
    <rect x="0" y="0" width="100" height="40" rx="20" fill="#f0db4f"/>
    <text x="50" y="27" font-family="system-ui, -apple-system, sans-serif" font-size="18" font-weight="700" text-anchor="middle" fill="#1a1a1a">ES2023</text>
  </g>

  <!-- Main Title -->
  <text x="600" y="130" font-family="system-ui, -apple-system, sans-serif" font-size="64" font-weight="800" text-anchor="middle" fill="#ffffff">
    JavaScript Bootcamp
  </text>

  <!-- Subtitle -->
  <text x="600" y="175" font-family="system-ui, -apple-system, sans-serif" font-size="28" font-weight="400" text-anchor="middle" fill="#f0db4f">
    Modern Web Development from Zero to Hero
  </text>

  <!-- Stats Bar -->
  <g transform="translate(300, 215)">
    <!-- 28 Weeks -->
    <g>
      <rect x="0" y="0" width="150" height="50" rx="8" fill="#2a2a2a"/>
      <text x="75" y="22" font-family="system-ui, -apple-system, sans-serif" font-size="20" font-weight="700" text-anchor="middle" fill="#f0db4f">28</text>
      <text x="75" y="40" font-family="system-ui, -apple-system, sans-serif" font-size="13" text-anchor="middle" fill="#888888">WEEKS</text>
    </g>

    <!-- 224 Hours -->
    <g transform="translate(175, 0)">
      <rect x="0" y="0" width="150" height="50" rx="8" fill="#2a2a2a"/>
      <text x="75" y="22" font-family="system-ui, -apple-system, sans-serif" font-size="20" font-weight="700" text-anchor="middle" fill="#f0db4f">224</text>
      <text x="75" y="40" font-family="system-ui, -apple-system, sans-serif" font-size="13" text-anchor="middle" fill="#888888">HOURS</text>
    </g>

    <!-- 8h/week -->
    <g transform="translate(350, 0)">
      <rect x="0" y="0" width="150" height="50" rx="8" fill="#2a2a2a"/>
      <text x="75" y="22" font-family="system-ui, -apple-system, sans-serif" font-size="20" font-weight="700" text-anchor="middle" fill="#f0db4f">8h</text>
      <text x="75" y="40" font-family="system-ui, -apple-system, sans-serif" font-size="13" text-anchor="middle" fill="#888888">PER WEEK</text>
    </g>
  </g>

  <!-- Code accent symbols -->
  <text x="270" y="160" font-family="'Courier New', monospace" font-size="24" font-weight="700" fill="#f0db4f" opacity="0.3">{</text>
  <text x="940" y="160" font-family="'Courier New', monospace" font-size="24" font-weight="700" fill="#f0db4f" opacity="0.3">}</text>

  <!-- Arrow function accent -->
  <text x="250" y="220" font-family="'Courier New', monospace" font-size="20" font-weight="700" fill="#f0db4f" opacity="0.2">=></text>
  <text x="950" y="220" font-family="'Courier New', monospace" font-size="20" font-weight="700" fill="#f0db4f" opacity="0.2">=></text>
</svg>
